# Blender 3.1.0
# www.blender.org
mtllib new.mtl
o Cylinder
v 0.000000 -1.000000 -1.000000
v 0.000000 1.000000 -1.000000
v 0.195090 -1.000000 -0.980785
v 0.195090 1.000000 -0.980785
v 0.382683 -1.000000 -0.923880
v 0.382683 1.000000 -0.923880
v 0.555570 -1.000000 -0.831470
v 0.555570 1.000000 -0.831470
v 0.707107 -1.000000 -0.707107
v 0.707107 1.000000 -0.707107
v 0.831470 -1.000000 -0.555570
v 0.831470 1.000000 -0.555570
v 0.923880 -1.000000 -0.382683
v 0.923880 1.000000 -0.382683
v 0.980785 -1.000000 -0.195090
v 0.980785 1.000000 -0.195090
v 1.000000 -1.000000 0.000000
v 1.000000 1.000000 0.000000
v 0.980785 -1.000000 0.195090
v 0.980785 1.000000 0.195090
v 0.923880 -1.000000 0.382683
v 0.923880 1.000000 0.382683
v 0.831470 -1.000000 0.555570
v 0.831470 1.000000 0.555570
v 0.707107 -1.000000 0.707107
v 0.707107 1.000000 0.707107
v 0.555570 -1.000000 0.831470
v 0.555570 1.000000 0.831470
v 0.382683 -1.000000 0.923880
v 0.382683 1.000000 0.923880
v 0.195090 -1.000000 0.980785
v 0.195090 1.000000 0.980785
v -0.000000 -1.000000 1.000000
v -0.038058 0.107987 0.005115
v -0.000000 1.000000 1.000000
v -0.195090 -1.000000 0.980785
v -0.195090 1.000000 0.980785
v -0.382683 -1.000000 0.923880
v -0.382683 1.000000 0.923880
v -0.555570 -1.000000 0.831470
v -0.555570 1.000000 0.831470
v -0.707107 -1.000000 0.707107
v -0.707107 1.000000 0.707107
v -0.831469 -1.000000 0.555570
v -0.831469 1.000000 0.555570
v -0.923880 -1.000000 0.382684
v -0.923880 1.000000 0.382684
v -0.980785 -1.000000 0.195090
v -0.980785 1.000000 0.195090
v -1.000000 -1.000000 -0.000000
v -1.000000 1.000000 -0.000000
v -0.980785 -1.000000 -0.195090
v -0.980785 1.000000 -0.195090
v -0.923879 -1.000000 -0.382684
v -0.923879 1.000000 -0.382684
v -0.831470 -1.000000 -0.555570
v -0.831470 1.000000 -0.555570
v -0.707107 -1.000000 -0.707107
v -0.707107 1.000000 -0.707107
v -0.555570 -1.000000 -0.831470
v -0.555570 1.000000 -0.831470
v -0.382683 -1.000000 -0.923880
v -0.382683 1.000000 -0.923880
v -0.195090 -1.000000 -0.980785
v -0.195090 1.000000 -0.980785
v 0.070021 -1.000000 -0.538234
v -0.038058 -1.000000 -0.548879
v 0.269725 -1.000000 0.465744
v 0.173947 -1.000000 0.516938
v 0.269725 -1.000000 -0.455514
v 0.173947 -1.000000 -0.506709
v 0.505291 -1.000000 -0.102964
v 0.515936 -1.000000 0.005115
v 0.505291 -1.000000 0.113194
v 0.473766 -1.000000 0.217119
v 0.422571 -1.000000 0.312897
v 0.473766 -1.000000 -0.206889
v 0.422571 -1.000000 -0.302668
v 0.353675 -1.000000 -0.386618
v 0.353675 -1.000000 0.396847
v -0.549881 -1.000000 0.217119
v -0.581406 -1.000000 0.113194
v -0.592051 -1.000000 0.005115
v -0.581406 -1.000000 -0.102964
v -0.345840 -1.000000 0.465744
v -0.429790 -1.000000 0.396847
v -0.498686 -1.000000 0.312897
v -0.549881 -1.000000 -0.206890
v -0.498687 -1.000000 -0.302668
v -0.250062 -1.000000 -0.506709
v -0.345840 -1.000000 -0.455514
v 0.070021 -1.000000 0.548464
v -0.038058 -1.000000 0.559108
v -0.146136 -1.000000 0.548464
v -0.250062 -1.000000 0.516938
v -0.146136 -1.000000 -0.538234
v -0.429790 -1.000000 -0.386618
vn 0.0980 -0.0000 -0.9952
vn 0.2903 -0.0000 -0.9569
vn 0.4714 -0.0000 -0.8819
vn 0.6344 -0.0000 -0.7730
vn 0.7730 -0.0000 -0.6344
vn 0.8819 -0.0000 -0.4714
vn 0.9569 -0.0000 -0.2903
vn 0.9952 -0.0000 -0.0980
vn 0.9952 -0.0000 0.0980
vn 0.9569 -0.0000 0.2903
vn 0.8819 -0.0000 0.4714
vn 0.7730 -0.0000 0.6344
vn 0.6344 -0.0000 0.7730
vn 0.4714 -0.0000 0.8819
vn 0.2903 -0.0000 0.9569
vn 0.0980 -0.0000 0.9952
vn -0.0980 -0.0000 0.9952
vn -0.2903 -0.0000 0.9569
vn -0.4714 -0.0000 0.8819
vn -0.6344 -0.0000 0.7730
vn -0.7730 -0.0000 0.6344
vn -0.8819 -0.0000 0.4714
vn -0.9569 -0.0000 0.2903
vn -0.9952 -0.0000 0.0980
vn -0.9952 -0.0000 -0.0980
vn -0.9569 -0.0000 -0.2903
vn -0.8819 -0.0000 -0.4714
vn -0.7730 -0.0000 -0.6344
vn -0.6344 -0.0000 -0.7730
vn -0.4714 -0.0000 -0.8819
vn -0.0000 1.0000 -0.0000
vn -0.2903 -0.0000 -0.9569
vn -0.0980 -0.0000 -0.9952
vn -0.0000 -1.0000 -0.0000
vn -0.0878 -0.4455 0.8910
vn -0.2599 -0.4455 0.8567
vn -0.4220 -0.4455 0.7896
vn -0.5680 -0.4455 0.6921
vn -0.6921 -0.4455 0.5680
vn -0.7896 -0.4455 0.4220
vn -0.8567 -0.4455 0.2599
vn -0.8910 -0.4455 0.0878
vn -0.8910 -0.4455 -0.0878
vn -0.8567 -0.4455 -0.2599
vn -0.7896 -0.4455 -0.4220
vn -0.6921 -0.4455 -0.5680
vn -0.5680 -0.4455 -0.6921
vn -0.4220 -0.4455 -0.7896
vn -0.2599 -0.4455 -0.8567
vn -0.0878 -0.4455 -0.8910
vn 0.0878 -0.4455 -0.8910
vn 0.2599 -0.4455 -0.8567
vn 0.4220 -0.4455 -0.7896
vn 0.5680 -0.4455 -0.6921
vn 0.6921 -0.4455 -0.5680
vn 0.7896 -0.4455 -0.4220
vn 0.8567 -0.4455 -0.2599
vn 0.8910 -0.4455 -0.0878
vn 0.8910 -0.4455 0.0878
vn 0.8567 -0.4455 0.2599
vn 0.7896 -0.4455 0.4220
vn 0.6921 -0.4455 0.5680
vn 0.5680 -0.4455 0.6921
vn 0.4220 -0.4455 0.7896
vn 0.2599 -0.4455 0.8567
vn 0.0878 -0.4455 0.8910
vt 1.000000 0.500000
vt 0.000000 0.500000
vt 0.750000 0.490000
vt 1.000000 1.000000
vt 0.250000 0.490000
vt 0.000000 1.000000
vt 0.968750 0.500000
vt 0.796822 0.485388
vt 0.968750 1.000000
vt 0.296822 0.485388
vt 0.937500 0.500000
vt 0.841844 0.471731
vt 0.937500 1.000000
vt 0.341844 0.471731
vt 0.906250 0.500000
vt 0.883337 0.449553
vt 0.906250 1.000000
vt 0.383337 0.449553
vt 0.875000 0.500000
vt 0.919706 0.419706
vt 0.875000 1.000000
vt 0.419706 0.419706
vt 0.843750 0.500000
vt 0.949553 0.383337
vt 0.843750 1.000000
vt 0.449553 0.383337
vt 0.812500 0.500000
vt 0.971731 0.341844
vt 0.812500 1.000000
vt 0.471731 0.341844
vt 0.781250 0.500000
vt 0.985388 0.296822
vt 0.781250 1.000000
vt 0.485388 0.296822
vt 0.750000 0.500000
vt 0.990000 0.250000
vt 0.750000 1.000000
vt 0.490000 0.250000
vt 0.718750 0.500000
vt 0.985388 0.203178
vt 0.718750 1.000000
vt 0.485388 0.203178
vt 0.687500 0.500000
vt 0.971731 0.158156
vt 0.687500 1.000000
vt 0.471731 0.158156
vt 0.656250 0.500000
vt 0.949553 0.116663
vt 0.656250 1.000000
vt 0.449553 0.116663
vt 0.625000 0.500000
vt 0.919706 0.080294
vt 0.625000 1.000000
vt 0.419706 0.080294
vt 0.593750 0.500000
vt 0.883337 0.050447
vt 0.593750 1.000000
vt 0.383337 0.050447
vt 0.562500 0.500000
vt 0.841844 0.028269
vt 0.562500 1.000000
vt 0.341844 0.028269
vt 0.531250 0.500000
vt 0.796822 0.014612
vt 0.531250 1.000000
vt 0.296822 0.014612
vt 0.500000 0.500000
vt 0.750000 0.010000
vt 0.250000 0.250000
vt 0.500000 1.000000
vt 0.250000 0.010000
vt 0.468750 0.500000
vt 0.703178 0.014612
vt 0.468750 1.000000
vt 0.203178 0.014612
vt 0.437500 0.500000
vt 0.658156 0.028269
vt 0.437500 1.000000
vt 0.158156 0.028269
vt 0.406250 0.500000
vt 0.616663 0.050447
vt 0.406250 1.000000
vt 0.116663 0.050447
vt 0.375000 0.500000
vt 0.580294 0.080294
vt 0.375000 1.000000
vt 0.080294 0.080294
vt 0.343750 0.500000
vt 0.550447 0.116663
vt 0.343750 1.000000
vt 0.050447 0.116663
vt 0.312500 0.500000
vt 0.528269 0.158156
vt 0.312500 1.000000
vt 0.028269 0.158156
vt 0.281250 0.500000
vt 0.514612 0.203178
vt 0.281250 1.000000
vt 0.014612 0.203178
vt 0.250000 0.500000
vt 0.510000 0.250000
vt 0.250000 1.000000
vt 0.010000 0.250000
vt 0.218750 0.500000
vt 0.514612 0.296822
vt 0.218750 1.000000
vt 0.014612 0.296822
vt 0.187500 0.500000
vt 0.528269 0.341844
vt 0.187500 1.000000
vt 0.028269 0.341844
vt 0.156250 0.500000
vt 0.550447 0.383337
vt 0.156250 1.000000
vt 0.050447 0.383337
vt 0.125000 0.500000
vt 0.580294 0.419706
vt 0.125000 1.000000
vt 0.080294 0.419706
vt 0.093750 0.500000
vt 0.616663 0.449553
vt 0.093750 1.000000
vt 0.116663 0.449553
vt 0.062500 0.500000
vt 0.658156 0.471731
vt 0.158156 0.471731
vt 0.062500 1.000000
vt 0.031250 0.500000
vt 0.703178 0.485388
vt 0.203178 0.485388
vt 0.031250 1.000000
vt 0.766805 0.379176
vt 0.275939 0.380404
vt 0.740866 0.381731
vt 0.250000 0.382958
vt 0.814734 0.138222
vt 0.323868 0.139449
vt 0.791747 0.125935
vt 0.300881 0.127162
vt 0.814734 0.359323
vt 0.323868 0.360551
vt 0.791747 0.371610
vt 0.300881 0.372838
vt 0.871270 0.274711
vt 0.380404 0.275939
vt 0.873824 0.248772
vt 0.382959 0.250000
vt 0.871270 0.222834
vt 0.380404 0.224061
vt 0.863704 0.197891
vt 0.372838 0.199119
vt 0.851417 0.174905
vt 0.360551 0.176132
vt 0.863704 0.299653
vt 0.372838 0.300881
vt 0.851417 0.322640
vt 0.360551 0.323868
vt 0.834882 0.342788
vt 0.344016 0.344016
vt 0.834882 0.154757
vt 0.344016 0.155984
vt 0.618029 0.197891
vt 0.127162 0.199119
vt 0.610462 0.222834
vt 0.119596 0.224061
vt 0.607908 0.248773
vt 0.117042 0.250000
vt 0.610462 0.274711
vt 0.119596 0.275939
vt 0.666998 0.138222
vt 0.176132 0.139449
vt 0.646850 0.154757
vt 0.155984 0.155984
vt 0.630315 0.174905
vt 0.139449 0.176132
vt 0.618029 0.299653
vt 0.127162 0.300881
vt 0.630315 0.322640
vt 0.139449 0.323868
vt 0.689985 0.371610
vt 0.199119 0.372838
vt 0.666998 0.359323
vt 0.176132 0.360551
vt 0.766805 0.118369
vt 0.275939 0.119596
vt 0.740866 0.115814
vt 0.250000 0.117042
vt 0.714927 0.118369
vt 0.224061 0.119596
vt 0.689985 0.125935
vt 0.199119 0.127162
vt 0.714927 0.379176
vt 0.224061 0.380404
vt 0.646850 0.342788
vt 0.155984 0.344016
s 0
f 1/1/1 2/4/1 4/9/1 3/7/1
f 3/7/2 4/9/2 6/13/2 5/11/2
f 5/11/3 6/13/3 8/17/3 7/15/3
f 7/15/4 8/17/4 10/21/4 9/19/4
f 9/19/5 10/21/5 12/25/5 11/23/5
f 11/23/6 12/25/6 14/29/6 13/27/6
f 13/27/7 14/29/7 16/33/7 15/31/7
f 15/31/8 16/33/8 18/37/8 17/35/8
f 17/35/9 18/37/9 20/41/9 19/39/9
f 19/39/10 20/41/10 22/45/10 21/43/10
f 21/43/11 22/45/11 24/49/11 23/47/11
f 23/47/12 24/49/12 26/53/12 25/51/12
f 25/51/13 26/53/13 28/57/13 27/55/13
f 27/55/14 28/57/14 30/61/14 29/59/14
f 29/59/15 30/61/15 32/65/15 31/63/15
f 31/63/16 32/65/16 35/70/16 33/67/16
f 33/67/17 35/70/17 37/74/17 36/72/17
f 36/72/18 37/74/18 39/78/18 38/76/18
f 38/76/19 39/78/19 41/82/19 40/80/19
f 40/80/20 41/82/20 43/86/20 42/84/20
f 42/84/21 43/86/21 45/90/21 44/88/21
f 44/88/22 45/90/22 47/94/22 46/92/22
f 46/92/23 47/94/23 49/98/23 48/96/23
f 48/96/24 49/98/24 51/102/24 50/100/24
f 50/100/25 51/102/25 53/106/25 52/104/25
f 52/104/26 53/106/26 55/110/26 54/108/26
f 54/108/27 55/110/27 57/114/27 56/112/27
f 56/112/28 57/114/28 59/118/28 58/116/28
f 58/116/29 59/118/29 61/122/29 60/120/29
f 60/120/30 61/122/30 63/127/30 62/124/30
f 59/119/31 57/115/31 55/111/31 53/107/31 51/103/31 49/99/31 47/95/31 45/91/31 43/87/31 41/83/31 39/79/31 37/75/31 35/71/31 32/66/31 30/62/31 28/58/31 26/54/31 24/50/31 22/46/31 20/42/31 18/38/31 16/34/31 14/30/31 12/26/31 10/22/31 8/18/31 6/14/31 4/10/31 2/5/31 65/130/31 63/126/31 61/123/31
f 62/124/32 63/127/32 65/131/32 64/128/32
f 64/128/33 65/131/33 2/6/33 1/2/33
f 1/3/34 3/8/34 5/12/34 7/16/34 9/20/34 11/24/34 13/28/34 15/32/34 17/36/34 19/40/34 21/44/34 23/48/34 25/52/34 27/56/34 29/60/34 31/64/34 33/68/34 36/73/34 38/77/34 40/81/34 42/85/34 44/89/34 46/93/34 48/97/34 82/164/34 81/162/34 87/174/34 86/172/34 85/170/34 95/190/34 94/188/34 93/186/34 92/184/34 69/138/34 68/136/34 80/160/34 76/152/34 75/150/34 74/148/34 73/146/34 72/144/34 77/154/34 78/156/34 79/158/34 70/140/34 71/142/34 66/132/34 67/134/34 96/192/34 64/129/34
f 83/166/34 82/164/34 48/97/34 50/101/34 52/105/34 54/109/34 56/113/34 58/117/34 60/121/34 62/125/34 64/129/34 96/192/34 90/180/34 91/182/34 97/194/34 89/178/34 88/176/34 84/168/34
f 66/133/35 34/69/35 67/135/35
f 34/69/36 66/133/36 71/143/36
f 34/69/37 71/143/37 70/141/37
f 34/69/38 70/141/38 79/159/38
f 34/69/39 79/159/39 78/157/39
f 34/69/40 78/157/40 77/155/40
f 34/69/41 77/155/41 72/145/41
f 72/145/42 73/147/42 34/69/42
f 73/147/43 74/149/43 34/69/43
f 74/149/44 75/151/44 34/69/44
f 76/153/45 34/69/45 75/151/45
f 80/161/46 34/69/46 76/153/46
f 34/69/47 80/161/47 68/137/47
f 34/69/48 68/137/48 69/139/48
f 34/69/49 69/139/49 92/185/49
f 92/185/50 93/187/50 34/69/50
f 93/187/51 94/189/51 34/69/51
f 94/189/52 95/191/52 34/69/52
f 85/171/53 34/69/53 95/191/53
f 86/173/54 34/69/54 85/171/54
f 86/173/55 87/175/55 34/69/55
f 87/175/56 81/163/56 34/69/56
f 82/165/57 34/69/57 81/163/57
f 83/167/58 34/69/58 82/165/58
f 34/69/59 83/167/59 84/169/59
f 34/69/60 84/169/60 88/177/60
f 34/69/61 88/177/61 89/179/61
f 34/69/62 89/179/62 97/195/62
f 97/195/63 91/183/63 34/69/63
f 91/183/64 90/181/64 34/69/64
f 96/193/65 34/69/65 90/181/65
f 67/135/66 34/69/66 96/193/66
